<svg xmlns="http://www.w3.org/2000/svg" viewBox="0 0 810 810"><defs><style>.cls-1{fill:#91cfb4;}.cls-2{fill:#f4c973;}.cls-3{fill:#f8a44b;}.cls-4{fill:#ed7b49;}.cls-5{fill:#b5715a;}.cls-6{fill:#00b9c8;}</style></defs><title>logo_icon</title><g id="Layer_2" data-name="Layer 2"><g id="Layer_2-2" data-name="Layer 2"><path class="cls-1" d="M24.36,266.38Q87.74,264,151.12,260V89.47A405.94,405.94,0,0,0,24.36,266.38Z"/><path class="cls-2" d="M2.8,357.2c49.44,1.64,98.88,4.18,148.32,7.29V260q-63.38,3.89-126.76,6.36A402.36,402.36,0,0,0,2.8,357.2Z"/><path class="cls-3" d="M0,405A403.76,403.76,0,0,0,28.61,554.76q61.25-2.47,122.51-6.52V364.49c-49.44-3.11-98.88-5.65-148.32-7.29A409.05,409.05,0,0,0,0,405Z"/><path class="cls-4" d="M79.59,646.1q35.76,2.08,71.53,4.65V548.24q-61.25,4-122.51,6.52A404.28,404.28,0,0,0,79.59,646.1Z"/><path class="cls-5" d="M151.12,720.53V650.75q-35.76-2.55-71.53-4.65A407.53,407.53,0,0,0,151.12,720.53Z"/><path class="cls-1" d="M710.34,138.95,625,224.31c46.17-3.11,92.35-5.81,138.52-7.84A406,406,0,0,0,710.34,138.95Z"/><path class="cls-2" d="M625,224.31l-37,37A231.63,231.63,0,0,1,637.69,402c57.41,3.86,114.83,7,172.24,9,0-2,.07-4,.07-6a403.13,403.13,0,0,0-46.5-188.52C717.33,218.51,671.15,221.21,625,224.31Z"/><path class="cls-3" d="M637.72,405a231.52,231.52,0,0,1-25.85,106.63c62.22-4.51,124.44-8.28,186.66-10.65a405.39,405.39,0,0,0,11.4-90c-57.41-2-114.83-5.15-172.24-9C637.7,403,637.72,404,637.72,405Z"/><path class="cls-4" d="M592.69,542.55,715.34,665.2A403.82,403.82,0,0,0,798.53,501c-62.22,2.37-124.44,6.15-186.66,10.65A233.27,233.27,0,0,1,592.69,542.55Z"/><path class="cls-6" d="M644.09,114l20.14-20.14A405.29,405.29,0,0,0,220.63,44.3V81.63C361.79,91.58,502.94,104.85,644.09,114Z"/><path class="cls-1" d="M220.63,255.42c55.41-3.91,110.82-8.33,166.23-12.81V173c6-.46,12-.77,18.13-.77a231.6,231.6,0,0,1,136.51,44.29L644.09,114c-141.15-9.13-282.31-22.41-423.46-32.36Z"/><path class="cls-2" d="M220.63,369.21c55.41,4,110.82,8.54,166.23,13.13V242.61c-55.41,4.48-110.82,8.9-166.23,12.81Z"/><path class="cls-3" d="M220.63,543.4c55.41-4.11,110.82-8.76,166.23-13.47V382.34c-55.41-4.59-110.82-9.12-166.23-13.13Z"/><path class="cls-4" d="M220.63,656.05c143.94,11.64,287.88,26.89,431.82,37.47L547.7,588.77a231.64,231.64,0,0,1-142.7,49c-6.11,0-12.14-.31-18.13-.77v-107c-55.41,4.71-110.82,9.36-166.23,13.47Z"/><path class="cls-5" d="M220.63,765.7a405.32,405.32,0,0,0,449.48-54.52l-17.66-17.66c-143.94-10.57-287.88-25.83-431.82-37.47Z"/></g></g></svg>